<?xml version="1.0" encoding="UTF-8" standalone="no"?>
<svg
   xmlns:dc="http://purl.org/dc/elements/1.1/"
   xmlns:cc="http://creativecommons.org/ns#"
   xmlns:rdf="http://www.w3.org/1999/02/22-rdf-syntax-ns#"
   xmlns:svg="http://www.w3.org/2000/svg"
   xmlns="http://www.w3.org/2000/svg"
   height="68.300003"
   width="302.60001"
   xml:space="preserve"
   viewBox="0 0 302.60001 68.300001"
   y="0px"
   x="0px"
   id="Warstwa_1"
   version="1.1"><metadata
     id="metadata41"><rdf:RDF><cc:Work
         rdf:about=""><dc:format>image/svg+xml</dc:format><dc:type
           rdf:resource="http://purl.org/dc/dcmitype/StillImage" /><dc:title></dc:title></cc:Work></rdf:RDF></metadata><defs
     id="defs39" /><style
     id="style3"
     type="text/css">
	.st0{fill:#007CBF;}
	.st1{fill:#CDDC29;}
	.st2{fill:#75C044;}
	.st3{fill:#E6E7E8;}
</style><g
     transform="translate(-146.3,-387.39999)"
     id="g5"><rect
       style="fill:#007cbf"
       id="rect7"
       height="68.300003"
       width="36.700001"
       class="st0"
       y="387.39999"
       x="146.3" /><polygon
       style="fill:#cddc29"
       id="polygon9"
       points="183,387.4 201.2,405.1 201.2,437.6 183,455.7 "
       class="st1" /><polygon
       style="fill:#75c044"
       id="polygon11"
       points="165.2,437.6 201.2,437.6 183,455.7 165.2,455.7 "
       class="st2" /><g
       id="g13"><path
         style="fill:#e6e7e8"
         id="path15"
         d="m 220.3,387.6 10.6,0 c 8.1,0 12.6,4.9 12.6,12.9 l 0,23.5 c 0,9.3 -4.8,13.7 -13.2,13.7 l -10,0 0,-50.1 z m 7.2,43.3 3.3,0 c 4,0 5.6,-2 5.6,-6.3 l 0,-24.1 c 0,-3.9 -1.3,-6.2 -5.6,-6.2 l -3.3,0 0,36.6 z"
         class="st3" /><path
         style="fill:#e6e7e8"
         id="path17"
         d="m 249.3,387.6 21.4,0 0,6.8 -14.2,0 0,14.6 10.8,0 0,6.8 -10.8,0 0,14.7 14.2,0 0,7.2 -21.4,0 0,-50.1 z"
         class="st3" /><path
         style="fill:#e6e7e8"
         id="path19"
         d="m 290.8,437.7 -6.3,0 -10.2,-50.1 7.6,0 5.7,35 0.1,0 5.8,-35 7.6,0 -10.3,50.1 z"
         class="st3" /><path
         style="fill:#e6e7e8"
         id="path21"
         d="m 305.7,387.6 10.6,0 c 8.1,0 12.6,4.9 12.6,12.9 l 0,23.5 c 0,9.3 -4.8,13.7 -13.2,13.7 l -10,0 0,-50.1 z m 7.2,43.3 3.3,0 c 4,0 5.6,-2 5.6,-6.3 l 0,-24.1 c 0,-3.9 -1.3,-6.2 -5.6,-6.2 l -3.3,0 0,36.6 z"
         class="st3" /><path
         style="fill:#e6e7e8"
         id="path23"
         d="m 343.1,387.6 6,0 11.2,50.1 -7.2,0 -2.1,-10.8 -9.8,0 -2.1,10.8 -7.2,0 11.2,-50.1 z m 3.1,14.4 -0.2,0 -3.5,18.1 7.2,0 -3.5,-18.1 z"
         class="st3" /><path
         style="fill:#e6e7e8"
         id="path25"
         d="m 367.5,416.5 -9.8,-28.9 7.6,0 5.8,19.9 0.1,0 5.8,-19.9 7.6,0 -9.8,28.9 0,21.2 -7.2,0 0,-21.2 z"
         class="st3" /></g><g
       id="g27"><path
         style="fill:#e6e7e8"
         id="path29"
         d="m 396.9,410.7 6.8,-13 c 0.7,-1.3 0.7,-2.1 0.7,-3.5 0,-1.4 0,-3 -1.8,-3 -1.1,0 -1.8,0.7 -1.8,1.9 l 0,2.2 -3.8,0 0,-2.1 c 0,-3.2 2.5,-5.8 5.7,-5.8 3.9,0 5.6,3.2 5.6,6.7 0,2.6 -0.1,3.3 -1.3,5.6 l -5.5,10.9 6.8,0 0,3.8 -11.2,0 0,-3.7 z"
         class="st3" /><path
         style="fill:#e6e7e8"
         id="path31"
         d="m 411.2,393.1 c 0,-3.5 2.6,-5.7 5.6,-5.7 3,0 5.6,2.2 5.6,5.7 l 0,15.5 c 0,3.5 -2.6,5.7 -5.6,5.7 -3,0 -5.6,-2.2 -5.6,-5.7 l 0,-15.5 z m 3.7,15.6 c 0,1.1 0.8,1.9 1.8,1.9 1.1,0 1.8,-0.8 1.8,-1.9 l 0,-15.5 c 0,-1.1 -0.8,-1.9 -1.8,-1.9 -1.1,0 -1.8,0.8 -1.8,1.9 l 0,15.5 z"
         class="st3" /><path
         style="fill:#e6e7e8"
         id="path33"
         d="m 429.5,391.5 -3.8,2.8 0,-4.1 3.8,-2.8 3.8,0 0,26.9 -3.8,0 0,-22.8 z"
         class="st3" /><path
         style="fill:#e6e7e8"
         id="path35"
         d="m 448.9,387.4 0,4.1 -5.2,22.9 -3.7,0 5.2,-22.9 -7.6,0 0,-4.1 11.3,0 z"
         class="st3" /></g></g></svg>